<?xml version="1.0" encoding="UTF-8"?>
<svg id="uuid-0dfe73b1-ebc0-443e-acf8-1b428cf03615" data-name="Layer 1" xmlns="http://www.w3.org/2000/svg" viewBox="0 0 4750 1311">
  <path d="M230.69,1113.63V196.08h181.18v917.55H230.69Z"/>
  <path d="M472.69,655.51c0-292.48,221.3-478.83,467.19-478.83s384.36,155.3,420.6,304.12l-168.24,53.06c-22-88-93.18-185.06-252.36-185.06-137.18,0-282.12,98.35-282.12,306.71,0,195.42,137.18,302.83,284.71,302.83,156.59,0,232.95-102.24,257.54-187.65l166.94,50.47c-34.94,141.06-166.94,311.89-424.48,311.89s-469.77-185.06-469.77-477.54Z"/>
  <path d="M1398.01,788.8V196.08h178.59V775.86c0,120.36,67.29,183.77,173.42,183.77s174.71-63.41,174.71-183.77V196.08h178.59V788.8c0,225.18-156.59,345.54-353.3,345.54s-352.01-120.36-352.01-345.54Z"/>
  <path d="M2548.5,571.39l248.48-220h-411.54V196.08h640.6v147.53l-244.59,210.95c138.47,3.88,270.48,106.12,270.48,278.24,0,157.88-125.53,300.24-345.54,300.24s-339.07-137.18-350.71-289.89l173.42-34.94c5.18,100.94,77.65,170.83,176,170.83,106.12,0,165.65-67.3,165.65-147.53,0-104.83-81.53-148.83-160.47-148.83-28.47,0-58.24,7.76-80.24,18.12l-81.53-129.41Z"/>
  <path d="M3713.23,366.91c-38.82-16.82-94.47-34.94-154-34.94-172.12,0-291.18,108.71-309.3,282.12,33.65-56.94,113.88-107.41,229.06-107.41,183.77,0,310.59,119.06,310.59,306.71s-154,319.65-350.71,319.65-367.54-138.47-367.54-421.89c0-331.3,207.06-534.48,498.25-534.48,84.12,0,155.3,19.41,194.12,45.29l-50.47,144.94Zm-274.36,614.72c93.18,0,172.12-62.12,172.12-163.06s-80.24-165.65-172.12-165.65-170.83,63.41-170.83,165.65,80.24,163.06,170.83,163.06Z"/>
  <path d="M3881.47,328.09c60.83-90.59,156.59-151.41,295.06-151.41s236.83,60.82,296.36,151.41c60.83,93.18,81.53,208.36,81.53,327.42s-20.71,232.95-81.53,326.12c-59.53,90.59-156.59,151.42-296.36,151.42s-234.24-60.83-295.06-151.42c-62.12-93.18-80.24-207.06-80.24-326.12s18.12-234.24,80.24-327.42Zm155.3,575.89c31.06,42.71,73.77,71.18,139.77,71.18s110-28.47,141.06-71.18c40.12-55.65,58.24-141.06,58.24-248.48s-18.12-192.83-58.24-248.48c-31.06-42.71-73.77-71.18-141.06-71.18s-108.71,28.47-139.77,71.18c-40.12,55.65-56.94,141.06-56.94,248.48s16.82,192.83,56.94,248.48Z"/>
</svg>