<svg xmlns="http://www.w3.org/2000/svg" width="4667" height="4667"><path d="M1165.174 301.729q26.133.031 52.266.044l3.84.002 15.487.008c65.838.036 131.676.113 197.514.2l29.588.039c70.526.09 141.05.19 483.839.8a1387944 1387944 0 0 0 178.007.33l98.647.18 2.235.005q69.776.128 139.552.262l2.195.004 137.254.265 2.165.004a1251299 1251299 0 0 0 172.622.32l2.18.003a1070577 1070577 0 0 1 133.872.249l2.048.004q28.66.054 57.321.103c99.837.174 199.674.383 299.51.871l18.92.09c79.07.361 79.07.361 115.574 1.336 9.881.258 19.762.294 29.646.281l5.967.006q7.883.005 15.765 0 6.732-.003 13.464 0 17.988.006 35.974-.004 13.177-.007 26.356-.009c55.342-.009 110.679-.07 166.018-.622 53.71-.533 107.418-.647 161.13-.68q12.192-.008 24.383-.028 14.948-.024 29.895-.022 7.712.003 15.424-.012c19.456-.038 38.865.082 58.296 1.143l2.225.12c88.136 4.905 175.553 32.602 242.88 91.483a164 164 0 0 0 4.108 3.351c7.317 5.818 13.95 12.127 20.53 18.755a1117 1117 0 0 0 5.277 5.265A242 242 0 0 1 4186 447q1.384 1.636 2.793 3.25c11.903 13.67 22.446 28.489 32.207 43.75l1.479 2.301c8.869 13.87 16.896 28.112 24.521 42.699l1.543 2.933c24.793 47.372 40.853 98.59 50.457 151.067l.616 3.36c2.542 14.256 4.108 28.615 5.572 43.015l.257 2.51c1.967 19.398 2.706 38.713 2.683 58.206l.006 6.183q.005 8.46 0 16.92c-.002 6.168.003 12.336.006 18.504q.007 16.266.005 32.531-.001 17.538.004 35.075l.001 2.251.004 11.378q.014 41.507.016 83.015.003 42.067.013 84.136v2.68l.022 88.16q.01 44.96.017 89.92v2.97q.005 17.94.006 35.882.015 101.745.041 203.488l.001 3.05.052 201.748a8327362 8327362 0 0 1 .135 617.714l.002 13.19.014 75.7v3.285l.005 22.982a3954893 3954893 0 0 0 .12 505.12q.027 98.632.037 197.266.006 67.28.023 134.559l.001 2.828.027 85.538v2.688q.013 41.962.012 83.927a155842 155842 0 0 0 .024 94.324l.001 2.263q.007 16.35.001 32.702c-.018 56.095.125 112.144 1.888 168.215 2.632 84.167 1.037 172.741-24.612 253.717l-1.022 3.257c-13.415 42.187-34.697 82.497-59.978 118.743l-1.18 1.7c-12.47 17.916-26.023 34.824-40.707 50.968a344 344 0 0 0-4.07 4.57c-5 5.69-10.26 11.085-15.605 16.45l-2.147 2.16c-4.602 4.588-9.362 8.919-14.291 13.152a2082 2082 0 0 0-3.57 3.14c-61.228 53.682-134.707 90.204-215.617 102.11l-3.084.458c-20.109 2.765-40.257 3.59-60.532 3.535q-3.57.002-7.137.006-8.67.006-17.339-.01c-6.97-.01-13.941-.01-20.912-.01q-19.083-.001-38.165-.023-19.657-.022-39.316-.02c-28.476.001-56.952-.018-85.428-.072l-2.593-.005c-28.758-.055-57.515-.17-86.273-.322-86.96-.46-173.921-.832-315.053-.932l-2.21-.001a316727 316727 0 0 0-126.713-.021h-2.398q-26.932-.001-53.863-.005l-22.53-.003h-2.517a991174 991174 0 0 0-185.88-.01 640549 640549 0 0 1-209.23-.031h-2.637a436287 436287 0 0 0-138.906-.013h-24.878q-39.04 0-78.077-.014a134592 134592 0 0 0-89.432-.002l-2.164.001q-15.659.003-31.316-.008c-56.564-.035-113.076.191-169.618 1.89-9.934.297-19.87.537-29.807.735l-3.803.075c-28.181.541-56.349.628-84.534.385l-25.599-.215q-13.375-.11-26.75-.226l-2.451-.021q-36.023-.315-72.044-.804c-85.105-1.16-170.2-1.767-255.314-1.778h-3.65c-30.325-.004-60.65.011-90.976.033q-30.13.021-60.259.027h-2.054l-20.669.005-46.152.01q-49.209.013-98.418.039l-8.645.004-30.351.015a905134 905134 0 0 1-210.944.079l-62.09.016h-2.035q-33.249.01-66.497.03-32.258.019-64.514.027-19.113.005-38.226.021-12.78.01-25.557.01-7.263 0-14.526.009c-50.244.063-50.244.063-73.497-2.364l-3.772-.392C643.072 4325.604 600.632 4314.38 561 4296l-5.348-2.43c-32.704-15.035-63.154-35.395-90.652-58.57l-1.583-1.326c-16.76-14.057-33.271-28.946-47.417-45.674l-2.559-2.895c-59.61-67.71-93.417-153.322-119.99-361.884l-.064-4.117c-.506-33.2-.56-66.4-.586-99.602q-.012-13.94-.032-27.879-.038-27.785-.063-55.571a231032 231032 0 0 0-.073-67.503c-.065-55.311-.118-110.623-.17-165.935l-.06-63.81-.003-2.002-.002-2.003-.008-8.026-.002-2.01c-.069-69.514-.133-139.029-.51-1145.948v-24.399l-.001-2.705-.008-106.831c-.008-84.172-.012-168.344-.002-262.33v-2.449c.01-76.64.026-153.282 1.086-671.109l.11-32.864.007-2.342.03-9.297q.163-49.588.338-99.177l.011-3.385.094-25.857c.133-37.084.559-74.156 1.305-111.232l.178-9.057c.43-21.788 1.053-43.563 1.933-65.338l.116-2.979c2.957-74.523 18.567-147.846 52.916-214.503a692 692 0 0 0 2.022-3.961c15.484-30.542 35.55-59.148 58.651-84.418a190 190 0 0 0 3.747-4.238c5.03-5.885 10.45-11.358 15.932-16.817q2.386-2.382 4.764-4.771C440.566 413.294 446.102 407.99 452 403l2.922-2.563C470.03 387.417 486.19 375.72 503 365l1.866-1.192c11.624-7.357 23.87-13.6 36.134-19.808.745-.38 1.49-.76 2.257-1.153 47.796-24.24 101.582-33.244 154.685-34.28l4.906-.104q5.265-.112 10.529-.218a16957 16957 0 0 0 17.075-.355 68436 68436 0 0 1 42.688-.888l2.575-.053q14.666-.304 29.331-.614 7.788-.165 15.575-.324c21.962-.448 43.92-.93 65.875-1.67 92.875-3.12 185.763-2.727 278.678-2.612M790.958 428.285q-12.34.042-24.682.069-14.28.03-28.559.1c-4.637.023-9.275.042-13.912.048-41.696.062-82.822 4.038-120.805 22.498l-1.998.946c-27.05 12.91-52.715 32.18-75.002 52.054l-2.8 2.465c-5.258 4.667-10.276 9.52-15.2 14.535a722 722 0 0 1-7.797 7.727c-6.042 5.907-11.692 11.936-16.898 18.609-1.514 1.931-3.05 3.844-4.586 5.758-48.764 61.21-70.704 136.848-71.129 214.414l-.057 6.726c-.053 6.3-.091 12.6-.126 18.9q-.037 6.303-.08 12.603c-.58 87.92-.467 175.843-.459 302.72q.004 34.862 0 69.725v2.472l-.005 78.66v2.599q-.003 62.982 0 125.966l.001 5.5v2.754l.002 38.753q.002 64.203 0 128.408v14.077l-.003 171.879v2.91q0 93.126.003 186.252v2.998l.004 99.351a4727288 4727288 0 0 1-.004 476.673v2.982q-.003 92.887-.003 185.773v2.912l.003 186.296a1996275 1996275 0 0 1-.002 166.77v8.193q-.004 62.844-.001 125.689v2.615l.006 79.364v2.496q.002 34.725-.001 69.451a162425 162425 0 0 0 .138 250.651 88068 88068 0 0 0 .273 132.583q.046 17.184.075 34.367.032 19.352.1 38.704c.023 6.557.042 13.115.048 19.672.08 77.24 7.286 152.529 41.498 223.048l1.363 2.85c9.292 19.394 20.067 37.7 32.637 55.15l1.437 1.999c23.494 32.478 52.265 60.673 85.563 83.001l2.16 1.459c57.949 38.822 126.55 57.535 195.465 63.228l2.203.185c23.315 1.92 46.667 2.277 70.05 2.255q4.09.001 8.18.005 8.85.005 17.703 0 13.264-.004 26.528.002 24.043.006 48.087.002a151086 151086 0 0 1 57.863 0 468639 468639 0 0 0 137.154-.007h3.355q33.703-.006 67.405-.007c117.848-.007 235.697-.031 1237.316-1.061l115.123-.159 2.915-.004c89.101-.121 178.203-.245 560.493-.898l3.617-.007c130.816-.257 130.816-.257 528.178-2.891q15.612-.172 31.224-.339a110237 110237 0 0 0 80.097-.887c46.765-.506 46.765-.506 93.525-1.356l2.463-.052c49.552-1.064 97.224-12.912 141.896-34.468l2.072-.99A444 444 0 0 0 4019 4209l2.343-1.226c25.466-13.425 48.919-30.134 70.196-49.532q2.445-2.228 4.922-4.422c9.1-8.066 17.658-16.556 25.539-25.82l2.602-2.938c69.29-78.625 98.801-178.59 102.523-323.988-.004-3.868 0-7.736.001-11.604q.004-10.167-.002-20.333-.006-15.244-.003-30.489.003-26.055-.004-52.11-.007-26.448-.007-52.894v-17.058q-.001-67.767-.014-135.533-.012-56.759-.016-113.518l-.002-19.894v-5.995l-.002-14.031a3208452 3208452 0 0 0-.08-454.718v-2.13l-.002-8.511c-.016-69.58-.032-139.16-.279-847.553l-.035-80.868a1764212 1764212 0 0 1-.103-277.99l-.022-66.76v-2.219q-.022-68.699-.052-137.397l-.001-2.138-.062-136.289q-.022-46.799-.035-93.597v-2.019l-.01-34.065a371998 371998 0 0 0-.064-150.166q-.014-27.442-.015-54.886-.002-26.992-.025-53.983-.013-14.391-.01-28.784c.146-52.806.146-52.806-2.281-105.542l-.234-3.31a541 541 0 0 0-1.453-16.815l-.244-2.441c-8.34-82.733-29.65-160.238-86.819-222.965a803 803 0 0 1-6.75-7.532A229 229 0 0 0 4107 514q-1.527-1.338-3.05-2.68c-20.1-17.592-42.18-33.091-65.95-45.32l-2.418-1.249c-40.95-20.887-86.557-30.968-132.35-32.298l-2.004-.06c-20.928-.62-41.868-.706-62.803-.865q-9.24-.073-18.482-.151-16.712-.137-33.425-.268-16.205-.127-32.41-.262c-32.187-.267-64.374-.511-96.56-.747q-11.955-.088-23.907-.179c-93.154-.711-186.308-1.07-397.631-1.453l-31.659-.05c-92.18-.148-184.362-.273-1145.353-.552l-73.325.004a2200388 2200388 0 0 1-323.051-.004h-2.073q-64.559-.003-129.118-.003h-2.022l-129.227.003q-53.55.001-107.098-.002c-110.415-.007-220.83-.013-502.126.421"/><path d="M2087.895 1475.543c10.194 9.142 14.577 23.565 19.168 36.145l.823 2.239c4.306 11.736 8.4 23.544 12.32 35.415q.819 2.481 1.648 4.959c11.948 35.81 20.59 72.817 29.854 109.388q1.526 6.014 3.057 12.027a28727 28727 0 0 1 11.004 43.417l2.572 10.17c20.288 80.2 40.386 160.448 60.444 240.706q4.674 18.705 9.352 37.408l12.332 49.325.595 2.382 3.999 15.992a32708 32708 0 0 1 29.462 118.78 22909 22909 0 0 0 11.845 47.882l2.953 11.901c8.406 33.89 16.766 67.79 25.01 101.72 8.436 34.718 17.04 69.394 25.652 104.068 7.82 31.479 15.616 62.962 23.27 94.48 6.843 28.172 13.721 56.335 20.7 84.473a6218 6218 0 0 1 3.76 15.23c8.795 36.7 8.795 36.7 22.785 71.662l1.414 2.897c5.72 11.43 13.218 22.293 25.836 26.666 6.696 1.96 13.118 2.429 20.063 2.563l2.908.138c7.29.115 11.031-1.604 16.279-6.576l1.674-1.487c8.37-7.592 15.198-16.052 21.326-25.513l1.89-2.883c15.065-24.36 21.054-53.151 27.205-80.743 7.287-32.675 15.81-64.968 24.808-97.21 6.685-23.957 13.2-47.957 19.66-71.977l6.167-22.925.782-2.906a15637 15637 0 0 1 12.436-45.924l3.872-14.221c11.619-42.669 23.094-85.375 34.526-128.094a48932 48932 0 0 1 16.602-61.847q5.84-21.716 11.677-43.433l3.986-14.828c20.114-74.814 40-149.685 59.492-224.664 8.025-30.868 16.06-61.733 24.221-92.565q1.345-5.078 2.68-10.157c11.794-44.807 11.794-44.807 18.809-57.623l1.288-2.393c3.518-6.326 7.515-11.724 12.899-16.607l1.953-1.785c7.871-6.511 16.784-8.958 26.906-8.598 11.106 1.354 19.287 7.858 26.377 16.107 2.95 3.805 5.1 7.926 7.264 12.214l1.526 2.98c9.937 19.683 18.782 39.909 27.224 60.27l.795 1.905c9.933 23.878 18.272 48.46 26.89 72.834l3.58 10.106q2.892 8.164 5.781 16.33 3.616 10.215 7.24 20.426c22.358 63.04 44.508 126.155 66.397 189.36q3.575 10.32 7.16 20.636l5.194 14.949a7796 7796 0 0 1 12.404 35.962l2.093 6.112.698 2.04 1.397 4.074q1.687 4.924 3.365 9.85c19.16 56.265 40.364 109.785 96.467 137.751 32.117 15.403 69.522 17.556 104.539 17.758l7.687.055q9.61.067 19.222.123 8.017.047 16.035.102c44.549.3 89.098.48 133.648.614q14.392.043 28.786.09l17.82.056 6.703.021q25.688.084 51.377.142 18.222.04 36.444.1 10.028.034 20.054.05 9.314.014 18.627.052 3.373.01 6.747.012c29.969.01 61.295 1.167 84.69 22.33 11.715 12.097 17.915 28.245 17.98 44.956-.634 18.194-8.493 34.412-21.57 46.914-15.721 13.216-34.157 14.261-53.754 14.229l-4.61.005q-6.304.005-12.61-.001c-4.544-.003-9.089.001-13.633.004q-13.367.005-26.734 0-10.916-.003-21.832-.001h-3.15l-6.34.001q-29.754.004-59.51-.006-25.308-.006-50.614.001a137579 137579 0 0 1-65.412.004h-3.162q-10.807-.001-21.616.002c-65.093.02-130.141-.579-195.213-2.328-5.917-.158-11.833-.3-17.75-.44-4.69-.113-9.379-.238-14.068-.366q-3.277-.085-6.556-.16c-15.61-.354-31.06-1.28-45.936-6.467l-2.228-.767c-26.095-9.386-46.528-27.769-61.772-50.608l-1.154-1.723c-31.358-47.653-47.611-108.327-66.576-161.683a4031 4031 0 0 0-10.762-29.969l-1.08-2.966-2.128-5.837a2214 2214 0 0 1-17.488-49.885c-15.504-59.51-15.504-59.51-52.062-104.312-8.21-3.902-17.875-3.917-26.437-1.062-13.09 5.468-20.26 14.136-25.927 26.881-3.148 8.074-5.343 16.474-7.698 24.806l-1.921 6.725c-10.02 35.187-19.658 70.484-29.326 105.77q-1.721 6.276-3.445 12.553c-12.117 44.121-23.739 88.354-34.996 132.702l-1.21 4.766q-7.285 28.7-14.537 57.41-4.17 16.502-8.358 33c-10.158 39.992-20.252 80-30.332 120.012l-.55 2.177a48139 48139 0 0 0-27.566 109.859 16517 16517 0 0 1-17.633 69.948 15228 15228 0 0 0-16.25 64.57 22018 22018 0 0 1-23.537 93.392 18496 18496 0 0 0-8.337 32.945c-25.617 101.588-25.617 101.588-38.69 141.921l-.634 1.959a5974 5974 0 0 1-10.001 30.579 3684 3684 0 0 0-3.19 9.714 2141 2141 0 0 1-3.836 11.61 757 757 0 0 0-1.414 4.3c-6.803 20.876-16.964 45.26-37.347 55.78-7.404 3.04-15.768 3.102-23.25.277-14.11-7.387-18.651-22.187-23.578-36.344l-.712-2.033c-11.583-33.17-19.98-67.285-28.78-101.27a23106 23106 0 0 0-8.503-32.718 61787 61787 0 0 1-40.311-155.615 110792 110792 0 0 0-14.136-54.792 344007 344007 0 0 1-40.094-155.5l-11.776-45.697-.784-3.039a313649 313649 0 0 0-30.422-117.938l-10.57-40.966-6.85-26.557-.758-2.94a61152 61152 0 0 0-22.13-85.521 48178 48178 0 0 1-22.424-86.789 53293 53293 0 0 0-28.266-109.309l-.644-2.482a31072 31072 0 0 1-12.35-47.765 37311 37311 0 0 0-34.7-133.43q-3.21-12.247-6.412-24.498c-11.825-45.408-11.825-45.408-23.956-90.734q-.653-2.397-1.298-4.795c-6.222-23.06-14.654-44.837-36.202-57.432-15.302-8.266-33.654-11.75-50.672-7.055-22.792 7.216-36.365 22.998-48.062 43.125l-1.674 2.858a3686 3686 0 0 0-3.495 5.983q-2.626 4.5-5.265 8.991A2389 2389 0 0 0 1900 1916l-1.342 2.396a3000 3000 0 0 0-19.032 34.606q-1.623 2.994-3.252 5.984c-17.083 31.403-33.362 63.265-48.717 95.548a1701 1701 0 0 1-5.38 11.134c-6.509 13.377-12.924 26.787-19.159 40.295-5.337 11.551-10.79 23.047-16.247 34.543a5785 5785 0 0 0-11.05 23.389l-1.015 2.16-2.002 4.27a3056 3056 0 0 1-18.318 38.362l-1.693 3.481-.876 1.8a1460 1460 0 0 0-5.336 11.115c-6.643 13.973-13.468 27.847-20.397 41.68a8744 8744 0 0 0-5.245 10.495c-6.147 12.298-12.378 24.541-18.84 36.677a1987 1987 0 0 0-3.162 5.97c-8.18 15.497-16.51 30.89-25.223 46.096a2108 2108 0 0 0-4.586 8.07c-8.762 15.484-17.722 30.825-27.128 45.929l-1.806 2.9c-9.926 15.886-19.695 31.145-32.77 44.624a286 286 0 0 0-3.881 4.124c-25.223 26.52-62.45 39.922-98.543 41.352-3.246.047-6.491.049-9.738.045l-2.91-.003c-10.724-.023-21.445-.197-32.167-.382q-8.664-.148-17.33-.287l-6.183-.102c-47.826-.787-95.653-1.464-143.485-1.834l-3.656-.028c-34.886-.27-69.771-.457-104.657-.64l-27.52-.144-3.073-.016q-16.57-.087-33.141-.164c-22.63-.103-45.26-.224-67.889-.393q-7.11-.052-14.221-.094-11.59-.066-23.18-.2-3.705-.039-7.412-.057c-20.08-.109-40.357-1.456-55.891-15.99-13.06-14.444-17.347-32.484-16.766-51.61C936.858 2425.839 940.07 2412 950 2400l1.582-1.957c13.492-15.068 38.693-16.576 57.558-17.712 12.448-.65 24.929-.502 37.39-.517q5.994-.01 11.988-.029 10.385-.027 20.77-.045 15.147-.03 30.294-.07 24.758-.063 49.515-.118l2.987-.006 47.4-.105q24.558-.056 49.115-.119 13.695-.035 27.39-.062a17703 17703 0 0 0 73.698-.275c11.94-.067 23.88-.153 35.82-.267q5.184-.05 10.368-.08c59.369-.372 110.86-8.937 154.135-52.343 6.088-6.215 11.677-12.606 16.787-19.643a309 309 0 0 1 3.734-4.992c4.542-6.067 8.534-12.313 12.18-18.957l1.307-2.368c4.676-8.525 9.126-17.162 13.538-25.826l2.72-5.325c10.836-21.246 21.482-42.588 32.13-63.928q4.365-8.744 8.734-17.486 7.308-14.625 14.61-29.25l.926-1.854 14.942-29.926q7.752-15.524 15.509-31.047 5.16-10.328 10.315-20.66l6.426-12.864 2.943-5.898a1577 1577 0 0 1 18.13-35.266c2.131-4.036 4.214-8.097 6.304-12.154 5.214-10.12 10.518-20.177 16.005-30.151 4.497-8.191 8.877-16.442 13.25-24.7a2598 2598 0 0 1 17.613-32.723q3.048-5.563 6.055-11.148a1600 1600 0 0 1 18.168-32.836c3.763-6.633 7.352-13.339 10.865-20.106 3.73-7.148 7.709-14.145 11.701-21.148 4.142-7.29 8.145-14.646 12.098-22.039a1190 1190 0 0 1 14.97-27.114c4.363-7.678 8.646-15.4 12.905-23.136l2.036-3.697 1.019-1.85 1.02-1.851 1.019-1.853c8.62-15.65 17.309-31.26 26.12-46.802 4.799-8.475 9.529-16.988 14.253-25.505a7984 7984 0 0 1 17.92-32.09q2.637-4.707 5.27-9.415a7266 7266 0 0 1 18.572-33.019c3.41-6.026 6.8-12.063 10.178-18.108q3.512-6.279 7.033-12.553 1.65-2.944 3.291-5.893c11.203-20.12 23.72-38.896 39.343-55.88a256 256 0 0 0 5.613-6.359q1.716-1.941 3.438-3.875l1.719-1.992c14.858-16.18 37.253-22.062 55.176-7.465"/></svg>